<svg width="87" height="81" viewBox="0 0 87 81" fill="none" xmlns="http://www.w3.org/2000/svg">
<g opacity="0.3">
<mask id="mask0_1_11" style="mask-type:alpha" maskUnits="userSpaceOnUse" x="0" y="0" width="9" height="9">
<path d="M4.58896 8.83774C6.75662 8.83774 8.51386 6.99735 8.51386 4.72716C8.51386 2.45698 6.75662 0.616638 4.58896 0.616638C2.4213 0.616638 0.664062 2.45698 0.664062 4.72716C0.664062 6.99735 2.4213 8.83774 4.58896 8.83774Z" fill="url(#paint0_linear_1_11)"/>
</mask>
<g mask="url(#mask0_1_11)">
<path d="M4.58896 8.83774C6.75662 8.83774 8.51386 6.99735 8.51386 4.72716C8.51386 2.45698 6.75662 0.616638 4.58896 0.616638C2.4213 0.616638 0.664062 2.45698 0.664062 4.72716C0.664062 6.99735 2.4213 8.83774 4.58896 8.83774Z" fill="url(#paint1_linear_1_11)"/>
</g>
<mask id="mask1_1_11" style="mask-type:alpha" maskUnits="userSpaceOnUse" x="23" y="0" width="9" height="9">
<path d="M27.3203 8.83777C29.488 8.83777 31.2452 6.99738 31.2452 4.72719C31.2452 2.45701 29.488 0.616669 27.3203 0.616669C25.1526 0.616669 23.3954 2.45701 23.3954 4.72719C23.3954 6.99738 25.1526 8.83777 27.3203 8.83777Z" fill="url(#paint2_linear_1_11)"/>
</mask>
<g mask="url(#mask1_1_11)">
<path d="M27.3207 8.83777C29.4883 8.83777 31.2456 6.99738 31.2456 4.72719C31.2456 2.45701 29.4883 0.616669 27.3207 0.616669C25.153 0.616669 23.3958 2.45701 23.3958 4.72719C23.3958 6.99738 25.153 8.83777 27.3207 8.83777Z" fill="url(#paint3_linear_1_11)"/>
</g>
<mask id="mask2_1_11" style="mask-type:alpha" maskUnits="userSpaceOnUse" x="46" y="0" width="8" height="9">
<path d="M50.0516 8.83777C52.2193 8.83777 53.9765 6.99738 53.9765 4.72719C53.9765 2.45701 52.2193 0.616669 50.0516 0.616669C47.8839 0.616669 46.1267 2.45701 46.1267 4.72719C46.1267 6.99738 47.8839 8.83777 50.0516 8.83777Z" fill="url(#paint4_linear_1_11)"/>
</mask>
<g mask="url(#mask2_1_11)">
<path d="M50.0523 8.83777C52.2199 8.83777 53.9772 6.99738 53.9772 4.72719C53.9772 2.45701 52.2199 0.616669 50.0523 0.616669C47.8846 0.616669 46.1274 2.45701 46.1274 4.72719C46.1274 6.99738 47.8846 8.83777 50.0523 8.83777Z" fill="url(#paint5_linear_1_11)"/>
</g>
<mask id="mask3_1_11" style="mask-type:alpha" maskUnits="userSpaceOnUse" x="68" y="0" width="9" height="9">
<path d="M72.7828 8.83777C74.9505 8.83777 76.7077 6.99738 76.7077 4.72719C76.7077 2.45701 74.9505 0.616669 72.7828 0.616669C70.6152 0.616669 68.8579 2.45701 68.8579 4.72719C68.8579 6.99738 70.6152 8.83777 72.7828 8.83777Z" fill="url(#paint6_linear_1_11)"/>
</mask>
<g mask="url(#mask3_1_11)">
<path d="M72.7834 8.83777C74.9511 8.83777 76.7083 6.99738 76.7083 4.72719C76.7083 2.45701 74.9511 0.616669 72.7834 0.616669C70.6158 0.616669 68.8585 2.45701 68.8585 4.72719C68.8585 6.99738 70.6158 8.83777 72.7834 8.83777Z" fill="url(#paint7_linear_1_11)"/>
</g>
<mask id="mask4_1_11" style="mask-type:alpha" maskUnits="userSpaceOnUse" x="0" y="21" width="9" height="9">
<path d="M4.58896 29.476C6.75662 29.476 8.51386 27.6357 8.51386 25.3655C8.51386 23.0953 6.75662 21.255 4.58896 21.255C2.4213 21.255 0.664062 23.0953 0.664062 25.3655C0.664062 27.6357 2.4213 29.476 4.58896 29.476Z" fill="url(#paint8_linear_1_11)"/>
</mask>
<g mask="url(#mask4_1_11)">
<path d="M4.58896 29.4761C6.75662 29.4761 8.51386 27.6357 8.51386 25.3655C8.51386 23.0954 6.75662 21.255 4.58896 21.255C2.4213 21.255 0.664062 23.0954 0.664062 25.3655C0.664062 27.6357 2.4213 29.4761 4.58896 29.4761Z" fill="url(#paint9_linear_1_11)"/>
</g>
<mask id="mask5_1_11" style="mask-type:alpha" maskUnits="userSpaceOnUse" x="23" y="21" width="9" height="9">
<path d="M27.3203 29.4761C29.488 29.4761 31.2452 27.6358 31.2452 25.3656C31.2452 23.0954 29.488 21.2551 27.3203 21.2551C25.1526 21.2551 23.3954 23.0954 23.3954 25.3656C23.3954 27.6358 25.1526 29.4761 27.3203 29.4761Z" fill="url(#paint10_linear_1_11)"/>
</mask>
<g mask="url(#mask5_1_11)">
<path d="M27.3207 29.4761C29.4883 29.4761 31.2456 27.6357 31.2456 25.3655C31.2456 23.0954 29.4883 21.255 27.3207 21.255C25.153 21.255 23.3958 23.0954 23.3958 25.3655C23.3958 27.6357 25.153 29.4761 27.3207 29.4761Z" fill="url(#paint11_linear_1_11)"/>
</g>
<mask id="mask6_1_11" style="mask-type:alpha" maskUnits="userSpaceOnUse" x="46" y="21" width="8" height="9">
<path d="M50.0516 29.4761C52.2193 29.4761 53.9765 27.6358 53.9765 25.3656C53.9765 23.0954 52.2193 21.2551 50.0516 21.2551C47.8839 21.2551 46.1267 23.0954 46.1267 25.3656C46.1267 27.6358 47.8839 29.4761 50.0516 29.4761Z" fill="url(#paint12_linear_1_11)"/>
</mask>
<g mask="url(#mask6_1_11)">
<path d="M50.0523 29.4761C52.2199 29.4761 53.9772 27.6357 53.9772 25.3655C53.9772 23.0954 52.2199 21.255 50.0523 21.255C47.8846 21.255 46.1274 23.0954 46.1274 25.3655C46.1274 27.6357 47.8846 29.4761 50.0523 29.4761Z" fill="url(#paint13_linear_1_11)"/>
</g>
<mask id="mask7_1_11" style="mask-type:alpha" maskUnits="userSpaceOnUse" x="68" y="21" width="9" height="9">
<path d="M72.7828 29.4761C74.9505 29.4761 76.7077 27.6358 76.7077 25.3656C76.7077 23.0954 74.9505 21.2551 72.7828 21.2551C70.6152 21.2551 68.8579 23.0954 68.8579 25.3656C68.8579 27.6358 70.6152 29.4761 72.7828 29.4761Z" fill="url(#paint14_linear_1_11)"/>
</mask>
<g mask="url(#mask7_1_11)">
<path d="M72.7834 29.4761C74.9511 29.4761 76.7083 27.6357 76.7083 25.3655C76.7083 23.0954 74.9511 21.255 72.7834 21.255C70.6158 21.255 68.8585 23.0954 68.8585 25.3655C68.8585 27.6357 70.6158 29.4761 72.7834 29.4761Z" fill="url(#paint15_linear_1_11)"/>
</g>
<mask id="mask8_1_11" style="mask-type:alpha" maskUnits="userSpaceOnUse" x="0" y="41" width="9" height="10">
<path d="M4.58896 50.0717C6.75662 50.0717 8.51386 48.2313 8.51386 45.9611C8.51386 43.6909 6.75662 41.8506 4.58896 41.8506C2.4213 41.8506 0.664062 43.6909 0.664062 45.9611C0.664062 48.2313 2.4213 50.0717 4.58896 50.0717Z" fill="url(#paint16_linear_1_11)"/>
</mask>
<g mask="url(#mask8_1_11)">
<path d="M4.58896 50.0717C6.75662 50.0717 8.51386 48.2314 8.51386 45.9612C8.51386 43.691 6.75662 41.8506 4.58896 41.8506C2.4213 41.8506 0.664062 43.691 0.664062 45.9612C0.664062 48.2314 2.4213 50.0717 4.58896 50.0717Z" fill="url(#paint17_linear_1_11)"/>
</g>
<mask id="mask9_1_11" style="mask-type:alpha" maskUnits="userSpaceOnUse" x="23" y="41" width="9" height="10">
<path d="M27.3203 50.072C29.488 50.072 31.2452 48.2316 31.2452 45.9614C31.2452 43.6912 29.488 41.8509 27.3203 41.8509C25.1526 41.8509 23.3954 43.6912 23.3954 45.9614C23.3954 48.2316 25.1526 50.072 27.3203 50.072Z" fill="url(#paint18_linear_1_11)"/>
</mask>
<g mask="url(#mask9_1_11)">
<path d="M27.3207 50.0718C29.4883 50.0718 31.2456 48.2314 31.2456 45.9612C31.2456 43.691 29.4883 41.8507 27.3207 41.8507C25.153 41.8507 23.3958 43.691 23.3958 45.9612C23.3958 48.2314 25.153 50.0718 27.3207 50.0718Z" fill="url(#paint19_linear_1_11)"/>
</g>
<mask id="mask10_1_11" style="mask-type:alpha" maskUnits="userSpaceOnUse" x="46" y="41" width="8" height="10">
<path d="M50.0516 50.072C52.2193 50.072 53.9765 48.2316 53.9765 45.9614C53.9765 43.6912 52.2193 41.8509 50.0516 41.8509C47.8839 41.8509 46.1267 43.6912 46.1267 45.9614C46.1267 48.2316 47.8839 50.072 50.0516 50.072Z" fill="url(#paint20_linear_1_11)"/>
</mask>
<g mask="url(#mask10_1_11)">
<path d="M50.0523 50.0718C52.2199 50.0718 53.9772 48.2314 53.9772 45.9612C53.9772 43.691 52.2199 41.8507 50.0523 41.8507C47.8846 41.8507 46.1274 43.691 46.1274 45.9612C46.1274 48.2314 47.8846 50.0718 50.0523 50.0718Z" fill="url(#paint21_linear_1_11)"/>
</g>
<mask id="mask11_1_11" style="mask-type:alpha" maskUnits="userSpaceOnUse" x="68" y="41" width="9" height="10">
<path d="M72.7828 50.072C74.9505 50.072 76.7077 48.2316 76.7077 45.9614C76.7077 43.6912 74.9505 41.8509 72.7828 41.8509C70.6152 41.8509 68.8579 43.6912 68.8579 45.9614C68.8579 48.2316 70.6152 50.072 72.7828 50.072Z" fill="url(#paint22_linear_1_11)"/>
</mask>
<g mask="url(#mask11_1_11)">
<path d="M72.7834 50.0718C74.9511 50.0718 76.7083 48.2314 76.7083 45.9612C76.7083 43.691 74.9511 41.8507 72.7834 41.8507C70.6158 41.8507 68.8585 43.691 68.8585 45.9612C68.8585 48.2314 70.6158 50.0718 72.7834 50.0718Z" fill="url(#paint23_linear_1_11)"/>
</g>
<mask id="mask12_1_11" style="mask-type:alpha" maskUnits="userSpaceOnUse" x="0" y="62" width="9" height="9">
<path d="M4.58896 70.7104C6.75662 70.7104 8.51386 68.87 8.51386 66.5998C8.51386 64.3296 6.75662 62.4893 4.58896 62.4893C2.4213 62.4893 0.664062 64.3296 0.664062 66.5998C0.664062 68.87 2.4213 70.7104 4.58896 70.7104Z" fill="url(#paint24_linear_1_11)"/>
</mask>
<g mask="url(#mask12_1_11)">
<path d="M4.58896 70.7101C6.75662 70.7101 8.51386 68.8698 8.51386 66.5996C8.51386 64.3294 6.75662 62.489 4.58896 62.489C2.4213 62.489 0.664062 64.3294 0.664062 66.5996C0.664062 68.8698 2.4213 70.7101 4.58896 70.7101Z" fill="url(#paint25_linear_1_11)"/>
</g>
<mask id="mask13_1_11" style="mask-type:alpha" maskUnits="userSpaceOnUse" x="23" y="62" width="9" height="9">
<path d="M27.3203 70.7104C29.488 70.7104 31.2452 68.87 31.2452 66.5998C31.2452 64.3296 29.488 62.4893 27.3203 62.4893C25.1526 62.4893 23.3954 64.3296 23.3954 66.5998C23.3954 68.87 25.1526 70.7104 27.3203 70.7104Z" fill="url(#paint26_linear_1_11)"/>
</mask>
<g mask="url(#mask13_1_11)">
<path d="M27.3207 70.7101C29.4883 70.7101 31.2456 68.8698 31.2456 66.5996C31.2456 64.3294 29.4883 62.489 27.3207 62.489C25.153 62.489 23.3958 64.3294 23.3958 66.5996C23.3958 68.8698 25.153 70.7101 27.3207 70.7101Z" fill="url(#paint27_linear_1_11)"/>
</g>
<mask id="mask14_1_11" style="mask-type:alpha" maskUnits="userSpaceOnUse" x="46" y="62" width="8" height="9">
<path d="M50.0516 70.7104C52.2193 70.7104 53.9765 68.87 53.9765 66.5998C53.9765 64.3296 52.2193 62.4893 50.0516 62.4893C47.8839 62.4893 46.1267 64.3296 46.1267 66.5998C46.1267 68.87 47.8839 70.7104 50.0516 70.7104Z" fill="url(#paint28_linear_1_11)"/>
</mask>
<g mask="url(#mask14_1_11)">
<path d="M50.0523 70.7101C52.2199 70.7101 53.9772 68.8698 53.9772 66.5996C53.9772 64.3294 52.2199 62.489 50.0523 62.489C47.8846 62.489 46.1274 64.3294 46.1274 66.5996C46.1274 68.8698 47.8846 70.7101 50.0523 70.7101Z" fill="url(#paint29_linear_1_11)"/>
</g>
<mask id="mask15_1_11" style="mask-type:alpha" maskUnits="userSpaceOnUse" x="68" y="62" width="9" height="9">
<path d="M72.7828 70.7104C74.9505 70.7104 76.7077 68.87 76.7077 66.5998C76.7077 64.3296 74.9505 62.4893 72.7828 62.4893C70.6152 62.4893 68.8579 64.3296 68.8579 66.5998C68.8579 68.87 70.6152 70.7104 72.7828 70.7104Z" fill="url(#paint30_linear_1_11)"/>
</mask>
<g mask="url(#mask15_1_11)">
<path d="M72.7834 70.7101C74.9511 70.7101 76.7083 68.8698 76.7083 66.5996C76.7083 64.3294 74.9511 62.489 72.7834 62.489C70.6158 62.489 68.8585 64.3294 68.8585 66.5996C68.8585 68.8698 70.6158 70.7101 72.7834 70.7101Z" fill="url(#paint31_linear_1_11)"/>
</g>
</g>
<defs>
<linearGradient id="paint0_linear_1_11" x1="38.8888" y1="95.9129" x2="-19.4545" y2="-45.5005" gradientUnits="userSpaceOnUse">
<stop stop-color="#FFA434"/>
<stop offset="1" stop-color="#FFA434"/>
</linearGradient>
<linearGradient id="paint1_linear_1_11" x1="38.8888" y1="95.9129" x2="-19.4545" y2="-45.5005" gradientUnits="userSpaceOnUse">
<stop stop-color="#FFA434"/>
<stop offset="1" stop-color="#FFA434"/>
</linearGradient>
<linearGradient id="paint2_linear_1_11" x1="61.6201" y1="95.9129" x2="3.27692" y2="-45.5006" gradientUnits="userSpaceOnUse">
<stop stop-color="#FFA434"/>
<stop offset="1" stop-color="#FFA434"/>
</linearGradient>
<linearGradient id="paint3_linear_1_11" x1="61.6205" y1="95.9129" x2="3.27729" y2="-45.5006" gradientUnits="userSpaceOnUse">
<stop stop-color="#FFA434"/>
<stop offset="1" stop-color="#FFA434"/>
</linearGradient>
<linearGradient id="paint4_linear_1_11" x1="84.3515" y1="95.9129" x2="26.0082" y2="-45.5006" gradientUnits="userSpaceOnUse">
<stop stop-color="#FFA434"/>
<stop offset="1" stop-color="#FFA434"/>
</linearGradient>
<linearGradient id="paint5_linear_1_11" x1="84.3521" y1="95.9129" x2="26.0089" y2="-45.5006" gradientUnits="userSpaceOnUse">
<stop stop-color="#FFA434"/>
<stop offset="1" stop-color="#FFA434"/>
</linearGradient>
<linearGradient id="paint6_linear_1_11" x1="107.083" y1="95.9129" x2="48.7394" y2="-45.5006" gradientUnits="userSpaceOnUse">
<stop stop-color="#FFA434"/>
<stop offset="1" stop-color="#FFA434"/>
</linearGradient>
<linearGradient id="paint7_linear_1_11" x1="107.083" y1="95.9129" x2="48.7401" y2="-45.5006" gradientUnits="userSpaceOnUse">
<stop stop-color="#FFA434"/>
<stop offset="1" stop-color="#FFA434"/>
</linearGradient>
<linearGradient id="paint8_linear_1_11" x1="38.8888" y1="116.55" x2="-19.4535" y2="-24.8622" gradientUnits="userSpaceOnUse">
<stop stop-color="#FFA434"/>
<stop offset="1" stop-color="#FFA434"/>
</linearGradient>
<linearGradient id="paint9_linear_1_11" x1="38.8888" y1="116.55" x2="-19.4535" y2="-24.8621" gradientUnits="userSpaceOnUse">
<stop stop-color="#FFA434"/>
<stop offset="1" stop-color="#FFA434"/>
</linearGradient>
<linearGradient id="paint10_linear_1_11" x1="61.6201" y1="116.55" x2="3.2779" y2="-24.8621" gradientUnits="userSpaceOnUse">
<stop stop-color="#FFA434"/>
<stop offset="1" stop-color="#FFA434"/>
</linearGradient>
<linearGradient id="paint11_linear_1_11" x1="61.6205" y1="116.55" x2="3.27827" y2="-24.8622" gradientUnits="userSpaceOnUse">
<stop stop-color="#FFA434"/>
<stop offset="1" stop-color="#FFA434"/>
</linearGradient>
<linearGradient id="paint12_linear_1_11" x1="84.3515" y1="116.55" x2="26.0092" y2="-24.8621" gradientUnits="userSpaceOnUse">
<stop stop-color="#FFA434"/>
<stop offset="1" stop-color="#FFA434"/>
</linearGradient>
<linearGradient id="paint13_linear_1_11" x1="84.3521" y1="116.55" x2="26.0099" y2="-24.8622" gradientUnits="userSpaceOnUse">
<stop stop-color="#FFA434"/>
<stop offset="1" stop-color="#FFA434"/>
</linearGradient>
<linearGradient id="paint14_linear_1_11" x1="107.083" y1="116.55" x2="48.7404" y2="-24.8621" gradientUnits="userSpaceOnUse">
<stop stop-color="#FFA434"/>
<stop offset="1" stop-color="#FFA434"/>
</linearGradient>
<linearGradient id="paint15_linear_1_11" x1="107.083" y1="116.55" x2="48.741" y2="-24.8622" gradientUnits="userSpaceOnUse">
<stop stop-color="#FFA434"/>
<stop offset="1" stop-color="#FFA434"/>
</linearGradient>
<linearGradient id="paint16_linear_1_11" x1="38.8888" y1="137.147" x2="-19.4545" y2="-4.26663" gradientUnits="userSpaceOnUse">
<stop stop-color="#FFA434"/>
<stop offset="1" stop-color="#FFA434"/>
</linearGradient>
<linearGradient id="paint17_linear_1_11" x1="38.8888" y1="137.147" x2="-19.4545" y2="-4.26654" gradientUnits="userSpaceOnUse">
<stop stop-color="#FFA434"/>
<stop offset="1" stop-color="#FFA434"/>
</linearGradient>
<linearGradient id="paint18_linear_1_11" x1="61.6201" y1="137.147" x2="3.27692" y2="-4.26638" gradientUnits="userSpaceOnUse">
<stop stop-color="#FFA434"/>
<stop offset="1" stop-color="#FFA434"/>
</linearGradient>
<linearGradient id="paint19_linear_1_11" x1="61.6205" y1="137.147" x2="3.27729" y2="-4.26656" gradientUnits="userSpaceOnUse">
<stop stop-color="#FFA434"/>
<stop offset="1" stop-color="#FFA434"/>
</linearGradient>
<linearGradient id="paint20_linear_1_11" x1="84.3515" y1="137.147" x2="26.0082" y2="-4.26638" gradientUnits="userSpaceOnUse">
<stop stop-color="#FFA434"/>
<stop offset="1" stop-color="#FFA434"/>
</linearGradient>
<linearGradient id="paint21_linear_1_11" x1="84.3521" y1="137.147" x2="26.0089" y2="-4.26656" gradientUnits="userSpaceOnUse">
<stop stop-color="#FFA434"/>
<stop offset="1" stop-color="#FFA434"/>
</linearGradient>
<linearGradient id="paint22_linear_1_11" x1="107.083" y1="137.147" x2="48.7394" y2="-4.26638" gradientUnits="userSpaceOnUse">
<stop stop-color="#FFA434"/>
<stop offset="1" stop-color="#FFA434"/>
</linearGradient>
<linearGradient id="paint23_linear_1_11" x1="107.083" y1="137.147" x2="48.7401" y2="-4.26656" gradientUnits="userSpaceOnUse">
<stop stop-color="#FFA434"/>
<stop offset="1" stop-color="#FFA434"/>
</linearGradient>
<linearGradient id="paint24_linear_1_11" x1="38.8888" y1="157.786" x2="-19.4545" y2="16.3721" gradientUnits="userSpaceOnUse">
<stop stop-color="#FFA434"/>
<stop offset="1" stop-color="#FFA434"/>
</linearGradient>
<linearGradient id="paint25_linear_1_11" x1="38.8888" y1="157.785" x2="-19.4545" y2="16.3719" gradientUnits="userSpaceOnUse">
<stop stop-color="#FFA434"/>
<stop offset="1" stop-color="#FFA434"/>
</linearGradient>
<linearGradient id="paint26_linear_1_11" x1="61.6201" y1="157.786" x2="3.27692" y2="16.3721" gradientUnits="userSpaceOnUse">
<stop stop-color="#FFA434"/>
<stop offset="1" stop-color="#FFA434"/>
</linearGradient>
<linearGradient id="paint27_linear_1_11" x1="61.6205" y1="157.785" x2="3.27729" y2="16.3718" gradientUnits="userSpaceOnUse">
<stop stop-color="#FFA434"/>
<stop offset="1" stop-color="#FFA434"/>
</linearGradient>
<linearGradient id="paint28_linear_1_11" x1="84.3515" y1="157.786" x2="26.0082" y2="16.3721" gradientUnits="userSpaceOnUse">
<stop stop-color="#FFA434"/>
<stop offset="1" stop-color="#FFA434"/>
</linearGradient>
<linearGradient id="paint29_linear_1_11" x1="84.3521" y1="157.785" x2="26.0089" y2="16.3718" gradientUnits="userSpaceOnUse">
<stop stop-color="#FFA434"/>
<stop offset="1" stop-color="#FFA434"/>
</linearGradient>
<linearGradient id="paint30_linear_1_11" x1="107.083" y1="157.786" x2="48.7394" y2="16.3721" gradientUnits="userSpaceOnUse">
<stop stop-color="#FFA434"/>
<stop offset="1" stop-color="#FFA434"/>
</linearGradient>
<linearGradient id="paint31_linear_1_11" x1="107.083" y1="157.785" x2="48.7401" y2="16.3718" gradientUnits="userSpaceOnUse">
<stop stop-color="#FFA434"/>
<stop offset="1" stop-color="#FFA434"/>
</linearGradient>
</defs>
</svg>
